# xmcd
#
# Track frame offsets:
#	150
#	16984
#	36069
#	50685
#	68662
#	90451
#	108412
#	122847
#	139672
#	158651
#	172043
#	186492
#	206073
#	217807
#	233409
#	253664
#	268152
#	284614
#	307717
#	323428
#
# Disc length: 4641 seconds
#
# Revision: 1
# Processed by: cddbd v1.5.1PL2 Copyright (c) Steve Scherf et al.
# Submitted via: EasyCDDAExtractor 6.0.0.1
#
DISCID=16121f14
DTITLE=Various Artist - Ministry of sound Funky House sessions Disc 1
DYEAR=1900
DGENRE=
TTITLE0=Martin solveig - Everybody
TTITLE1=Lil Love - Little love (club mix)
TTITLE2=Axwell - Feel the vibe (Till morning comes vocal mix)
TTITLE3=Kujay Dada - Let it play (Deep south mix)
TTITLE4=Haji and Emanuel - Take me away
TTITLE5=Joey Negro - Make a move on me ( Club mix)
TTITLE6=David Moralez - Feels good (Stonebridge club mix)
TTITLE7=Roger Sanchez - Turn on the music (Axwell Remix)
TTITLE8=Freemasons feat. Amanda Wilson - Love on my mind (Full intention Remix
TTITLE8=)
TTITLE9=Max Graham vs Yes - Owner of a lonely Heart (Soul avengers remix)
TTITLE10=Bon Garcon - Freek u (Full intention Remix)
TTITLE11=Tweet - Boogie 2 nite (Db boulevard mix)
TTITLE12=Tempramentals - I could let you love me (Db boulevard mix)
TTITLE13=Poker pets - Lovin You
TTITLE14=Fallen Angels - City Life
TTITLE15=Lovemakers - I get this feeling (Original mix)
TTITLE16=Lee Cabrera - I watch you (Ian carey club mix)
TTITLE17=Seamus Haji - Angels of love
TTITLE18=Jenn Cuneta - Come rain come shine (Stonebridge remix)
TTITLE19=Solasso feat. Foster Child - Hypnotised (Stonebridge remix)
EXTD=
EXTT0=
EXTT1=
EXTT2=
EXTT3=
EXTT4=
EXTT5=
EXTT6=
EXTT7=
EXTT8=
EXTT9=
EXTT10=
EXTT11=
EXTT12=
EXTT13=
EXTT14=
EXTT15=
EXTT16=
EXTT17=
EXTT18=
EXTT19=
PLAYORDER=
